HIERARCHY
ROOT joint_Root
{
	OFFSET 0.0 0.0 0.0
	CHANNELS 6 Xposition Yposition Zposition Zrotation Xrotation Yrotation 
	JOINT Hips
	{
		OFFSET -0.726466 93.3139 -2.00062
		CHANNELS 6 Xposition Yposition Zposition Zrotation Xrotation Yrotation 
		JOINT Spine
		{
			OFFSET 15.7357 0.0 0.0
			CHANNELS 6 Xposition Yposition Zposition Zrotation Xrotation Yrotation 
			JOINT Chest
			{
				OFFSET 8.98455 -0.406207 0.0
				CHANNELS 6 Xposition Yposition Zposition Zrotation Xrotation Yrotation 
				JOINT Neck
				{
					OFFSET 16.3773 0.0 0.0
					CHANNELS 6 Xposition Yposition Zposition Zrotation Xrotation Yrotation 
					JOINT Head
					{
						OFFSET 6.45672 0.0 0.0
						CHANNELS 6 Xposition Yposition Zposition Zrotation Xrotation Yrotation 
						End Site
						{
							OFFSET 0.0 0.0 0.0
						}
					}
				}
				JOINT Shoulder_L
				{
					OFFSET 12.9942 -0.242716 4.98039
					CHANNELS 6 Xposition Yposition Zposition Zrotation Xrotation Yrotation 
					JOINT UpperArm_L
					{
						OFFSET 5.34809 0.0 0.0
						CHANNELS 6 Xposition Yposition Zposition Zrotation Xrotation Yrotation 
						JOINT LowerArm_L
						{
							OFFSET 24.3286 1.87007e-05 0.0
							CHANNELS 6 Xposition Yposition Zposition Zrotation Xrotation Yrotation 
							JOINT Hand_L
							{
								OFFSET 22.2916 0.0 0.0
								CHANNELS 6 Xposition Yposition Zposition Zrotation Xrotation Yrotation 
								End Site
								{
									OFFSET 0.0 0.0 0.0
								}
							}
						}
					}
				}
				JOINT Shoulder_R
				{
					OFFSET 12.9945 -0.242716 -4.98039
					CHANNELS 6 Xposition Yposition Zposition Zrotation Xrotation Yrotation 
					JOINT UpperArm_R
					{
						OFFSET -5.34813 0.0 0.0
						CHANNELS 6 Xposition Yposition Zposition Zrotation Xrotation Yrotation 
						JOINT LowerArm_R
						{
							OFFSET -24.3289 0.000322201 0.0
							CHANNELS 6 Xposition Yposition Zposition Zrotation Xrotation Yrotation 
							JOINT Hand_R
							{
								OFFSET -22.2915 -0.000108084 0.0
								CHANNELS 6 Xposition Yposition Zposition Zrotation Xrotation Yrotation 
								End Site
								{
									OFFSET 0.0 0.0 0.0
								}
							}
						}
					}
				}
			}
		}
		JOINT UpperLeg_L
		{
			OFFSET -2.19248 -6.46944 0.0
			CHANNELS 6 Xposition Yposition Zposition Zrotation Xrotation Yrotation 
			JOINT LowerLeg_L
			{
				OFFSET 39.0811 0.0 -1.23785e-05
				CHANNELS 6 Xposition Yposition Zposition Zrotation Xrotation Yrotation 
				JOINT Foot_L
				{
					OFFSET 40.9854 0.0 -1.26872e-05
					CHANNELS 6 Xposition Yposition Zposition Zrotation Xrotation Yrotation 
					JOINT Toes_L
					{
						OFFSET 11.7543 0.0 0.0
						CHANNELS 6 Xposition Yposition Zposition Zrotation Xrotation Yrotation 
						End Site
						{
							OFFSET 0.0 0.0 0.0
						}
					}
				}
			}
		}
		JOINT UpperLeg_R
		{
			OFFSET -2.19251 6.46944 0.0
			CHANNELS 6 Xposition Yposition Zposition Zrotation Xrotation Yrotation 
			JOINT LowerLeg_R
			{
				OFFSET -39.0811 -0.00228153 -0.0401928
				CHANNELS 6 Xposition Yposition Zposition Zrotation Xrotation Yrotation 
				JOINT Foot_R
				{
					OFFSET -40.9854 0.0 0.0
					CHANNELS 6 Xposition Yposition Zposition Zrotation Xrotation Yrotation 
					JOINT Toes_R
					{
						OFFSET -11.7543 0.0 0.0
						CHANNELS 6 Xposition Yposition Zposition Zrotation Xrotation Yrotation 
						End Site
						{
							OFFSET 0.0 0.0 0.0
						}
					}
				}
			}
		}
	}
}
MOTION
Frames:	4
Frame Time:	0.0333333
0.000000 0.000000 0.000000 0.000000 0.000000 -0.000000 -2.078250 81.221800 15.814900 -84.849000 3.056360 175.799000 15.735700 0.000005 -0.000001 96.270300 79.647800 -93.815700 8.984550 -0.406207 -0.000000 12.776200 2.346330 4.646690 16.377300 -0.000001 -0.000001 1.975080 -1.042190 -0.480346 6.456720 -0.000001 -0.000000 -3.241920 -0.809412 2.289000 12.994200 -0.242716 4.980390 -88.087900 -4.777000 -68.154500 5.348090 -0.000007 -0.000001 -65.707200 29.372800 2.989110 24.328600 0.000019 0.000005 5.083590 5.836240 -41.183700 22.291600 -0.000001 0.000005 -4.324490 5.642250 -14.307700 12.994500 -0.242716 -4.980390 88.695300 3.338980 -68.646100 -5.348130 -0.000001 -0.000004 -43.007200 17.560400 -34.841000 -24.328900 0.000322 -0.000009 -2.321950 -1.353300 -59.771400 -22.291500 -0.000108 -0.000004 1.793000 5.600080 -11.349700 -2.192480 -6.469440 -0.000000 -175.348000 -4.788590 -34.938800 39.081100 -0.000007 -0.000012 -0.350975 -0.149018 113.007000 40.985400 -0.000006 -0.000013 8.094520 -4.710990 -42.680300 11.754300 -0.000000 0.000003 -0.004861 -0.060125 -19.023100 -2.192510 6.469440 -0.000001 -171.557000 11.113600 156.558000 -39.081100 -0.002282 -0.040193 0.171127 -0.091458 61.427300 -40.985400 0.000008 0.000006 9.605320 -2.530400 -88.846200 -11.754300 -0.000006 -0.000006 -1.131910 -1.326460 -20.002600
0.000000 0.000000 0.000000 0.000000 0.000000 -0.000000 -3.051220 84.002000 7.599780 -87.292500 6.416770 174.297000 15.735700 0.000005 -0.000001 103.459000 80.154900 -102.472000 8.984550 -0.406207 -0.000000 11.370800 4.577560 1.517650 16.377300 -0.000001 -0.000001 2.191970 -0.634479 0.043165 6.456720 -0.000001 -0.000000 -3.248980 -2.133550 2.694680 12.994200 -0.242716 4.980390 -87.861400 -4.949200 -66.595400 5.348090 -0.000007 -0.000001 -66.088400 27.713200 7.726670 24.328600 0.000019 0.000005 3.181710 3.561420 -41.824400 22.291600 -0.000001 0.000005 -3.600150 5.644760 -14.534100 12.994500 -0.242716 -4.980390 89.229000 2.070560 -69.574500 -5.348130 -0.000001 -0.000004 -41.885600 16.352300 -38.449400 -24.328900 0.000322 -0.000009 -2.466560 -1.245680 -63.202300 -22.291500 -0.000108 -0.000004 2.553910 5.594440 -11.015800 -2.192480 -6.469440 -0.000000 179.583000 -6.485130 -41.030600 39.081100 -0.000007 -0.000012 -0.250642 -0.064664 104.469000 40.985400 -0.000006 -0.000013 8.105570 -6.512210 -49.120000 11.754300 -0.000000 0.000003 -0.006029 -0.071111 -19.470900 -2.192510 6.469440 -0.000001 -177.129000 10.091100 164.477000 -39.081100 -0.002282 -0.040193 0.085442 -0.061934 53.005500 -40.985400 0.000008 0.000006 9.207360 1.799090 -83.094400 -11.754300 -0.000006 -0.000006 -0.607984 -0.734987 -24.925700
0.000000 0.000000 0.000000 0.000000 0.000000 -0.000000 -3.997940 87.812700 -0.787369 -89.169400 8.393130 173.037000 15.735700 0.000005 -0.000001 108.198000 80.594600 -108.397000 8.984550 -0.406207 -0.000000 10.152700 5.832690 -0.915856 16.377300 -0.000001 -0.000001 2.521010 -0.221192 0.222356 6.456720 -0.000001 -0.000000 -3.192260 -2.978000 3.098050 12.994200 -0.242716 4.980390 -87.318600 -5.872430 -65.405400 5.348090 -0.000007 -0.000001 -67.448400 25.103600 11.391100 24.328600 0.000019 0.000005 3.947700 4.410140 -41.906100 22.291600 -0.000001 0.000005 -4.180390 5.641810 -14.274500 12.994500 -0.242716 -4.980390 89.667100 0.919827 -70.108900 -5.348130 -0.000001 -0.000004 -42.589000 16.549300 -40.184500 -24.328900 0.000322 -0.000009 -3.247500 -1.506680 -65.127100 -22.291500 -0.000108 -0.000004 2.245740 5.593310 -10.949800 -2.192480 -6.469440 -0.000000 176.410000 -6.454610 -43.457400 39.081100 -0.000007 -0.000012 -0.106200 0.001707 89.083800 40.985400 -0.000006 -0.000013 6.484140 -6.992070 -54.365000 11.754300 -0.000000 0.000003 -0.005061 -0.062066 -19.102200 -2.192510 6.469440 -0.000001 178.043000 10.152700 172.015000 -39.081100 -0.002282 -0.040193 0.054257 -0.054941 42.861900 -40.985400 0.000008 0.000006 8.464800 6.430790 -70.565700 -11.754300 -0.000006 -0.000006 -0.100328 -0.445370 -35.162800
0.000000 0.000000 0.000000 0.000000 0.000000 -0.000000 -4.703600 91.561100 -9.041450 -89.882700 9.907010 171.868000 15.735700 0.000005 -0.000001 112.348000 80.957900 -113.293000 8.984550 -0.406207 -0.000000 9.065080 6.829450 -2.430860 16.377300 -0.000001 -0.000001 2.958300 0.047006 0.119224 6.456720 -0.000001 -0.000000 -3.382530 -3.620790 3.844750 12.994200 -0.242716 4.980390 -86.657300 -7.104160 -64.720200 5.348090 -0.000007 -0.000001 -69.130500 23.503800 14.305200 24.328600 0.000019 0.000005 5.021790 5.551810 -42.246600 22.291600 -0.000001 0.000005 -4.380140 5.640690 -14.182500 12.994500 -0.242716 -4.980390 89.998000 0.005430 -70.557300 -5.348130 -0.000001 -0.000004 -44.168600 17.700000 -40.725100 -24.328900 0.000322 -0.000009 -2.808940 -1.267050 -65.728700 -22.291500 -0.000108 -0.000004 1.686830 5.587860 -10.641400 -2.192480 -6.469440 -0.000000 175.258000 -7.186420 -42.246400 39.081100 -0.000007 -0.000012 -0.003164 0.001248 68.559800 40.985400 -0.000006 -0.000013 5.894570 -6.051410 -58.360400 11.754300 -0.000000 0.000003 -0.006007 -0.070911 -19.462800 -2.192510 6.469440 -0.000001 174.769000 11.444000 177.676000 -39.081100 -0.002282 -0.040193 0.056744 -0.080687 33.521900 -40.985400 0.000008 0.000006 7.077430 11.314700 -52.543400 -11.754300 -0.000006 -0.000006 -0.202976 -0.650024 -44.455400
